<svg width="24" height="24" viewBox="0 0 24 24" fill="none" xmlns="http://www.w3.org/2000/svg">
<path fill-rule="evenodd" clip-rule="evenodd" d="M17.745 14.585C17.555 13.805 16.445 13.805 16.255 14.585C16.2266 14.7022 16.171 14.8111 16.0926 14.9027C16.0142 14.9944 15.9153 15.0662 15.8039 15.1124C15.6925 15.1586 15.5718 15.1778 15.4515 15.1686C15.3313 15.1593 15.2149 15.1218 15.1119 15.059C14.4259 14.641 13.6409 15.426 14.0589 16.112C14.3289 16.555 14.0894 17.133 13.5854 17.2556C12.8049 17.4451 12.8049 18.5556 13.5854 18.7446C13.7026 18.773 13.8115 18.8287 13.9032 18.9071C13.9948 18.9856 14.0666 19.0845 14.1128 19.196C14.1589 19.3074 14.1781 19.4282 14.1687 19.5485C14.1594 19.6688 14.1218 19.7851 14.0589 19.8881C13.6409 20.5741 14.4259 21.3591 15.1119 20.9411C15.2149 20.8783 15.3313 20.8406 15.4515 20.8313C15.5718 20.8219 15.6926 20.8411 15.8041 20.8872C15.9155 20.9334 16.0145 21.0052 16.0929 21.0969C16.1714 21.1885 16.2271 21.2974 16.2555 21.4146C16.445 22.1951 17.5555 22.1951 17.7445 21.4146C17.773 21.2974 17.8288 21.1886 17.9072 21.0971C17.9857 21.0055 18.0847 20.9337 18.1961 20.8876C18.3075 20.8414 18.4282 20.8222 18.5485 20.8315C18.6687 20.8408 18.7851 20.8784 18.8881 20.9411C19.5741 21.3591 20.3591 20.5741 19.9411 19.8881C19.8784 19.7851 19.8408 19.6688 19.8315 19.5485C19.8222 19.4283 19.8414 19.3075 19.8875 19.1961C19.9337 19.0847 20.0055 18.9857 20.097 18.9073C20.1886 18.8288 20.2974 18.7731 20.4146 18.7446C21.1951 18.5551 21.1951 17.4446 20.4146 17.2556C20.2974 17.2271 20.1885 17.1715 20.0968 17.093C20.0052 17.0146 19.9334 16.9156 19.8872 16.8041C19.8411 16.6927 19.8219 16.5719 19.8313 16.4516C19.8406 16.3314 19.8782 16.215 19.9411 16.112C20.3591 15.426 19.5741 14.641 18.8881 15.059C18.7851 15.1219 18.6687 15.1595 18.5485 15.1689C18.4282 15.1782 18.3074 15.159 18.1959 15.1129C18.0845 15.0667 17.9855 14.9949 17.9071 14.9033C17.8286 14.8116 17.7729 14.7028 17.7445 14.5855L17.745 14.585Z" stroke="white"/>
<path d="M17.8889 18C17.8889 18.4909 17.4909 18.8889 17 18.8889C16.5091 18.8889 16.1111 18.4909 16.1111 18C16.1111 17.5091 16.5091 17.1111 17 17.1111C17.4909 17.1111 17.8889 17.5091 17.8889 18Z" stroke="white"/>
<path d="M2 21.2L2.0004 17.5996C2.00063 15.6115 3.61234 14 5.6004 14H12.2M14 5.6C14 7.58822 12.3882 9.2 10.4 9.2C8.41177 9.2 6.8 7.58822 6.8 5.6C6.8 3.61177 8.41177 2 10.4 2C12.3882 2 14 3.61177 14 5.6Z" stroke="white" stroke-width="1.5" stroke-linecap="round" stroke-linejoin="round"/>
</svg>
