<svg width="24" height="24" viewBox="0 0 24 24" fill="none" xmlns="http://www.w3.org/2000/svg">
<path fill-rule="evenodd" clip-rule="evenodd" d="M18.9313 12.7313C18.6938 11.7562 17.3062 11.7562 17.0687 12.7313C17.0333 12.8778 16.9637 13.0138 16.8657 13.1284C16.7677 13.243 16.6441 13.3328 16.5049 13.3905C16.3656 13.4482 16.2147 13.4723 16.0644 13.4607C15.9141 13.4491 15.7687 13.4022 15.6399 13.3238C14.7824 12.8013 13.8011 13.7825 14.3236 14.64C14.6611 15.1938 14.3618 15.9163 13.7317 16.0694C12.7561 16.3063 12.7561 17.6945 13.7317 17.9307C13.8783 17.9662 14.0144 18.0358 14.1289 18.1339C14.2435 18.2319 14.3333 18.3557 14.391 18.495C14.4487 18.6343 14.4726 18.7853 14.4609 18.9356C14.4492 19.086 14.4022 19.2314 14.3236 19.3601C13.8011 20.2176 14.7824 21.1989 15.6399 20.6764C15.7686 20.5978 15.9141 20.5508 16.0644 20.5391C16.2148 20.5274 16.3657 20.5514 16.5051 20.609C16.6444 20.6667 16.7681 20.7565 16.8662 20.8711C16.9642 20.9856 17.0338 21.1217 17.0693 21.2683C17.3062 22.2439 18.6944 22.2439 18.9307 21.2683C18.9663 21.1218 19.036 20.9858 19.134 20.8713C19.2321 20.7568 19.3558 20.6671 19.4951 20.6094C19.6344 20.5518 19.7853 20.5278 19.9356 20.5394C20.0859 20.551 20.2313 20.598 20.3601 20.6764C21.2176 21.1989 22.1989 20.2176 21.6764 19.3601C21.598 19.2314 21.551 19.0859 21.5394 18.9356C21.5278 18.7854 21.5518 18.6344 21.6094 18.4952C21.6671 18.3559 21.7568 18.2322 21.8713 18.1341C21.9858 18.036 22.1218 17.9663 22.2683 17.9307C23.2439 17.6938 23.2439 16.3057 22.2683 16.0694C22.1217 16.0339 21.9856 15.9643 21.8711 15.8663C21.7565 15.7682 21.6667 15.6445 21.609 15.5052C21.5513 15.3658 21.5274 15.2149 21.5391 15.0645C21.5508 14.9142 21.5978 14.7688 21.6764 14.64C22.1989 13.7825 21.2176 12.8013 20.3601 13.3238C20.2314 13.4023 20.0859 13.4494 19.9356 13.4611C19.7852 13.4728 19.6343 13.4488 19.4949 13.3911C19.3556 13.3334 19.2319 13.2436 19.1338 13.1291C19.0358 13.0145 18.9662 12.8784 18.9307 12.7319L18.9313 12.7313Z" stroke="white"/>
<path d="M19.1111 17C19.1111 17.6137 18.6137 18.1111 18 18.1111C17.3864 18.1111 16.8889 17.6137 16.8889 17C16.8889 16.3864 17.3864 15.8889 18 15.8889C18.6137 15.8889 19.1111 16.3864 19.1111 17Z" stroke="white"/>
<path d="M14 3.25C14.9665 3.25 15.75 4.0335 15.75 5V7C15.75 7.08497 15.7422 7.16827 15.7305 7.25H19C19.9665 7.25 20.75 8.0335 20.75 9V10.5605C20.2749 10.3574 19.7723 10.2075 19.25 10.1133V9C19.25 8.86193 19.1381 8.75 19 8.75H3C2.86193 8.75 2.75 8.86193 2.75 9V19C2.75 19.1381 2.86193 19.25 3 19.25H11.3711C11.5516 19.7818 11.7946 20.2843 12.0908 20.75H3C2.0335 20.75 1.25 19.9665 1.25 19V9C1.25 8.0335 2.0335 7.25 3 7.25H6.26953C6.25783 7.16827 6.25 7.08497 6.25 7V5C6.25 4.0335 7.0335 3.25 8 3.25H14ZM8 4.75C7.86193 4.75 7.75 4.86193 7.75 5V7C7.75 7.13807 7.86193 7.25 8 7.25H14C14.1381 7.25 14.25 7.13807 14.25 7V5C14.25 4.86193 14.1381 4.75 14 4.75H8Z" fill="white"/>
</svg>
